<?xml version="1.0" encoding="utf-8"?>
<!-- Generator: Adobe Illustrator 24.2.3, SVG Export Plug-In . SVG Version: 6.00 Build 0)  -->
<svg version="1.1" id="Layer_1" xmlns="http://www.w3.org/2000/svg" xmlns:xlink="http://www.w3.org/1999/xlink" x="0px" y="0px"
	 viewBox="0 0 125 50" style="enable-background:new 0 0 125 50;" xml:space="preserve">
<style type="text/css">
	.st0{fill:#37A8DB;}
	.st1{fill:#E75280;}
	.st2{fill:#96BD0D;}
	.st3{fill:#F19300;}
	.st4{fill:#FFDD00;}
</style>
<g>
	<rect y="16.39" class="st0" width="21.69" height="32.53"/>
	<rect class="st0" width="21.69" height="10.84"/>
	<polygon class="st1" points="108.43,5.55 108.43,21.81 97.58,5.55 81.32,5.55 81.32,48.92 97.58,48.92 97.58,32.65 108.43,48.92 
		124.69,48.92 124.69,5.55 	"/>
	<path class="st2" d="M42.29,27.23c0,2.4-1.94,4.34-4.34,4.34c-2.4,0-4.34-1.94-4.34-4.34c0-2.39,1.94-4.34,4.34-4.34V4.46
		c-12.58,0-22.77,10.19-22.77,22.77C15.18,39.81,25.37,50,37.95,50c12.58,0,22.77-10.19,22.77-22.77H42.29z"/>
	<path class="st3" d="M65.06,4.46c-12.58,0-22.77,10.19-22.77,22.77C42.29,39.81,52.48,50,65.06,50c12.58,0,22.77-10.19,22.77-22.77
		C87.83,14.65,77.63,4.46,65.06,4.46z"/>
	<path class="st4" d="M65.06,31.57c-2.4,0-4.34-1.94-4.34-4.34c0-2.39,1.94-4.34,4.34-4.34c2.4,0,4.34,1.94,4.34,4.34
		C69.39,29.63,67.45,31.57,65.06,31.57z"/>
</g>
</svg>
